<svg xmlns="http://www.w3.org/2000/svg" width="22.971" height="22.971" viewBox="0 0 22.971 22.971"><g transform="translate(-568.852 -446.363)"><g transform="translate(569.686 447.196)"><path d="M10.652,22.138A11.486,11.486,0,0,1,2.531,2.531a11.486,11.486,0,0,1,19.607,8.122A11.486,11.486,0,0,1,10.652,22.138Zm0-21.3a9.819,9.819,0,1,0,9.819,9.819A9.83,9.83,0,0,0,10.652.833Z" fill="#a5a5a5"/></g><path d="M-10816.839,3517.98a1,1,0,0,1-.707-.293l-3.018-3.018a1,1,0,0,1,0-1.414,1,1,0,0,1,1.414,0l2.2,2.2,5.028-6.714a1,1,0,0,1,1.4-.2,1,1,0,0,1,.2,1.4l-5.721,7.638a1,1,0,0,1-.729.4Z" transform="translate(11395.906 -3055.197)" fill="#a5a5a5"/></g></svg>