<svg xmlns="http://www.w3.org/2000/svg" width="20.254" height="20.254" viewBox="0 0 20.254 20.254">
  <g id="Path_223" data-name="Path 223" fill="none">
    <path d="M10.127,0A10.127,10.127,0,1,1,0,10.127,10.127,10.127,0,0,1,10.127,0Z" stroke="none"/>
    <path d="M 10.12683963775635 1 C 5.094279289245605 1 1 5.094279289245605 1 10.12683963775635 C 1 15.15939903259277 5.094279289245605 19.2536792755127 10.12683963775635 19.2536792755127 C 15.15939903259277 19.2536792755127 19.2536792755127 15.15939903259277 19.2536792755127 10.12683963775635 C 19.2536792755127 5.094279289245605 15.15939903259277 1 10.12683963775635 1 M 10.12683963775635 0 C 15.71973991394043 0 20.2536792755127 4.533939361572266 20.2536792755127 10.12683963775635 C 20.2536792755127 15.71973991394043 15.71973991394043 20.2536792755127 10.12683963775635 20.2536792755127 C 4.533939361572266 20.2536792755127 0 15.71973991394043 0 10.12683963775635 C 0 4.533939361572266 4.533939361572266 0 10.12683963775635 0 Z" stroke="none" fill="#725aff"/>
  </g>
</svg>
