<svg xmlns="http://www.w3.org/2000/svg" viewBox="0 0 39 25"><defs><style>.cls-1,.cls-2,.cls-3{fill:none;stroke-linecap:round;stroke-linejoin:round;}.cls-1,.cls-2{stroke:#fff;}.cls-2{stroke-dasharray:5.11 5.11;}.cls-3{stroke:#ff321e;}</style></defs><g id="Layer_2" data-name="Layer 2"><g id="Layer_1-2" data-name="Layer 1"><path class="cls-1" d="M37.36,8.27V3.13A2.6,2.6,0,0,0,34.8.5H3.06A2.6,2.6,0,0,0,.5,3.13V21.87A2.6,2.6,0,0,0,3.06,24.5H23"/><line class="cls-1" x1="7.55" y1="1.15" x2="7.55" y2="4.65"/><line class="cls-2" x1="7.55" y1="9.75" x2="7.55" y2="17.42"/><line class="cls-1" x1="7.55" y1="19.97" x2="7.55" y2="23.47"/><path class="cls-3" d="M34.89,20.81h0a2.19,2.19,0,0,0,0,3.06,2.11,2.11,0,0,0,3,0,2.19,2.19,0,0,0,0-3.06A2.07,2.07,0,0,0,34.89,20.81Z"/><path class="cls-3" d="M30.77,16.59a2.16,2.16,0,0,0,0-3.05,2,2,0,0,0-3,0,2.16,2.16,0,0,0,1.49,3.68A2.14,2.14,0,0,0,30.77,16.59Z"/><line class="cls-1" x1="28.1" y1="23.55" x2="37.57" y2="13.85"/></g></g></svg>