<svg xmlns="http://www.w3.org/2000/svg" viewBox="0 0 39 28"><defs><style>.cls-1,.cls-2,.cls-3{fill:none;}.cls-1{stroke:#fff;}.cls-1,.cls-2{stroke-linecap:round;stroke-linejoin:round;}.cls-2,.cls-3{stroke:#f94933;}.cls-3{stroke-miterlimit:10;}</style></defs><g id="Layer_2" data-name="Layer 2"><g id="Layer_1-2" data-name="Layer 1"><path class="cls-1" d="M.5,6.67V21.33c0,2.16,0,3.24.42,4.06a3.8,3.8,0,0,0,1.65,1.69c.82.42,1.88.42,4,.42H32.42c2.13,0,3.19,0,4-.42a3.8,3.8,0,0,0,1.65-1.69c.42-.82.42-1.9.42-4.06V6.67c0-2.16,0-3.24-.42-4.06A3.8,3.8,0,0,0,36.43.92C35.61.5,34.55.5,32.42.5H6.58c-2.13,0-3.19,0-4,.42A3.8,3.8,0,0,0,.92,2.61C.5,3.43.5,4.51.5,6.67Z"/><line class="cls-2" x1="8.1" y1="10.14" x2="8.1" y2="17.86"/><line class="cls-2" x1="30.9" y1="10.14" x2="30.9" y2="17.86"/><ellipse class="cls-3" cx="19.5" cy="14" rx="4.75" ry="4.82"/></g></g></svg>