<svg id="noun-edit-1532797" xmlns="http://www.w3.org/2000/svg" width="18.028" height="18.761" viewBox="0 0 18.028 18.761">
  <g id="Group" transform="translate(0 0)">
    <path id="Compound_Path" data-name="Compound Path" d="M18.592,28.088l4.926-1.066.229-.127,8.3-8.3a3.2,3.2,0,0,0,.025-4.545H32.05a3.225,3.225,0,0,0-4.545,0l-8.3,8.277a.533.533,0,0,0-.152.254L17.983,27.5a.533.533,0,0,0,.152.457.457.457,0,0,0,.355.152Zm12.035-9.5L23.391,25.8,20.268,22.68,27.5,15.469Zm.711-3.859h0a2.184,2.184,0,0,1,0,3.1l-3.123-3.1A2.234,2.234,0,0,1,31.339,14.733ZM19.862,23.7l2.514,2.539-3.225.711Z" transform="translate(-17.094 -13.11)" fill="#725aff"/>
    <path id="Path" d="M14.5,83.508a.508.508,0,0,0,.508.508H32.02a.508.508,0,1,0,0-1.016H15.008A.508.508,0,0,0,14.5,83.508Z" transform="translate(-14.5 -65.254)" fill="#725aff"/>
  </g>
</svg>
