<svg xmlns="http://www.w3.org/2000/svg" xmlns:xlink="http://www.w3.org/1999/xlink" width="126.896" height="124.358" viewBox="0 0 126.896 124.358">
  <defs>
    <clipPath id="clip-path">
      <rect id="Rectangle_84" data-name="Rectangle 84" width="126.896" height="124.358" fill="none"/>
    </clipPath>
  </defs>
  <g id="Group_191" data-name="Group 191" clip-path="url(#clip-path)">
    <path id="Path_84" data-name="Path 84" d="M63.448,0C98.489,0,126.9,27.838,126.9,62.179s-28.407,62.178-63.448,62.178S0,96.52,0,62.179,28.407,0,63.448,0" fill="#038ce5"/>
    <path id="Path_85" data-name="Path 85" d="M51.847,54.462c0,4.252-.011,8.5.013,12.754A1.134,1.134,0,0,1,51.2,68.38q-4.706,2.476-9.4,4.985c-.355.19-.711.381-1.058.585-.452.265-.637.239-.629-.377.028-2.615.011-5.229.011-7.844,0-5.1-.007-10.2.016-15.3a1.045,1.045,0,0,0-.669-1.07c-2.828-1.467-5.634-2.973-8.458-4.445a1.173,1.173,0,0,1-.728-1.191c.025-4.505.011-9.012.013-13.519,0-.294-.131-.7.473-.378,6.522,3.469,13.043,6.944,19.6,10.34A2.294,2.294,0,0,1,51.884,42.6c-.1,3.952-.038,7.907-.036,11.861" transform="translate(10.324 10.126)" fill="#fff"/>
    <path id="Path_86" data-name="Path 86" d="M48.238,54.512c0-4.229.013-8.457-.015-12.686a1.2,1.2,0,0,1,.767-1.218q10.111-5.326,20.2-10.69c.6-.318.646-.294.641.406-.025,3.4-.062,6.8-.074,10.2-.005,1.1.036,2.21.084,3.312a.951.951,0,0,1-.6,1c-2.953,1.541-5.888,3.119-8.842,4.66a.826.826,0,0,0-.493.855c.013,1.466.013,2.933.013,4.4q0,9.085-.007,18.169c0,1.357.016,1.33-1.212.673q-4.857-2.6-9.743-5.145a1.158,1.158,0,0,1-.728-1.183c.02-4.249.011-8.5.011-12.749h-.007" transform="translate(16.438 10.132)" fill="#fff"/>
    <path id="Path_87" data-name="Path 87" d="M40.077,70.392c0-1.637.009-3.274-.008-4.91a.75.75,0,0,1,.452-.756Q45,62.366,49.47,59.983a.546.546,0,0,1,.587.027q4.417,2.337,8.84,4.668a.889.889,0,0,1,.57.884c-.021,3.21-.008,6.42-.016,9.63,0,.244.122.574-.137.709-.213.111-.412-.153-.613-.259q-4.3-2.289-8.6-4.583a.68.68,0,0,0-.715.013c-2.9,1.557-5.809,3.093-8.7,4.66-.5.272-.6.165-.6-.365.019-1.657.008-3.316.008-4.975h-.019" transform="translate(13.659 20.422)" fill="#fff"/>
    <path id="Path_88" data-name="Path 88" d="M50.457,35.3c0,1.828-.011,3.654.008,5.48,0,.471-.118.566-.535.342q-3.9-2.09-7.809-4.159a.69.69,0,0,1-.375-.739.65.65,0,0,0-.442-.684c-2.147-1.114-4.281-2.253-6.427-3.368a.806.806,0,0,1-.491-.8q.014-5,.005-10.006c0-.408.084-.558.51-.331q7.305,3.882,14.628,7.736a1.46,1.46,0,0,1,.947,1.563c-.083,1.652-.025,3.312-.025,4.969Z" transform="translate(11.721 7.134)" fill="#fff"/>
    <path id="Path_89" data-name="Path 89" d="M48.253,35.322c0-1.808.012-3.614-.008-5.421a.874.874,0,0,1,.535-.9q7.192-3.773,14.369-7.579c.186-.1.363-.217.548-.319.157-.087.291-.311.5-.176.185.121.111.349.111.535.007,3.252.005,6.5.019,9.756a1.015,1.015,0,0,1-.632,1.043c-2.139,1.089-4.248,2.235-6.375,3.346a.535.535,0,0,0-.357.6c.063.455-.177.676-.56.877q-3.807,1.991-7.595,4.028c-.384.205-.6.3-.587-.3.027-1.828.009-3.657.009-5.484h.024" transform="translate(16.437 7.12)" fill="#fff"/>
  </g>
</svg>
