<svg id="Group_385" data-name="Group 385" xmlns="http://www.w3.org/2000/svg" xmlns:xlink="http://www.w3.org/1999/xlink" width="28.181" height="32.8" viewBox="0 0 28.181 32.8">
  <defs>
    <clipPath id="clip-path">
      <rect id="Rectangle_83" data-name="Rectangle 83" width="28.181" height="32.8" fill="none"/>
    </clipPath>
    <clipPath id="clip-path-2">
      <rect id="Rectangle_82" data-name="Rectangle 82" width="28.18" height="32.8" fill="none"/>
    </clipPath>
    <clipPath id="clip-path-3">
      <rect id="Rectangle_81" data-name="Rectangle 81" width="102.5" height="5.98" fill="none"/>
    </clipPath>
  </defs>
  <g id="Group_189" data-name="Group 189" clip-path="url(#clip-path)">
    <path id="Path_53" data-name="Path 53" d="M12.482,13.668,16.8,19.335,10.424,33.158l8.358-.507,7.055-15.3L16.449,5.065Z" transform="translate(-0.737 -0.358)" fill="#fff"/>
    <path id="Path_54" data-name="Path 54" d="M15.414,0,7.055.508,0,15.811,9.388,28.093l3.967-8.6L9.041,13.823Z" transform="translate(0 0)" fill="#fff"/>
    <g id="Group_188" data-name="Group 188" transform="translate(0 0)">
      <g id="Group_187" data-name="Group 187" clip-path="url(#clip-path-2)">
        <path id="Path_56" data-name="Path 56" d="M43.254,16.648H41.061V6.85h2.193Zm6.024,0H47.085V12.816a1.64,1.64,0,0,0-.431-1.294,2.257,2.257,0,0,0-1.47-.374,2.682,2.682,0,0,0-1.154.205,1.19,1.19,0,0,0-.6.607,2.552,2.552,0,0,0-.175,1.016h-.322l.029-1.418h.41a3.368,3.368,0,0,1,.454-1.17,2.5,2.5,0,0,1,.957-.877,3.25,3.25,0,0,1,1.558-.336,3.139,3.139,0,0,1,1.638.395,2.468,2.468,0,0,1,.979,1.068,3.476,3.476,0,0,1,.322,1.52Z" transform="translate(-2.903 -0.484)" fill="#fff"/>
        <path id="Path_57" data-name="Path 57" d="M54.972,16.97a5.323,5.323,0,0,1-2.149-.409A3.091,3.091,0,0,1,51.375,15.3a4.072,4.072,0,0,1-.512-2.135,3.876,3.876,0,0,1,.512-2.026A3.457,3.457,0,0,1,52.8,9.82a4.6,4.6,0,0,1,2.127-.468,5.025,5.025,0,0,1,2.1.41,3.13,3.13,0,0,1,1.4,1.206,3.6,3.6,0,0,1,.5,1.937c0,.127,0,.244-.015.351s-.024.225-.043.351H52.281V12.452h5.031l-.5.716v-.541a1.456,1.456,0,0,0-.454-1.2,2.362,2.362,0,0,0-1.477-.365,2.193,2.193,0,0,0-1.55.431,1.854,1.854,0,0,0-.438,1.368v.555a1.85,1.85,0,0,0,.438,1.367,2.215,2.215,0,0,0,1.565.432,2.7,2.7,0,0,0,1.361-.249.8.8,0,0,0,.395-.716V14.1h2.193v.161a2.213,2.213,0,0,1-.483,1.4,3.138,3.138,0,0,1-1.353.957,5.54,5.54,0,0,1-2.039.344" transform="translate(-3.595 -0.661)" fill="#fff"/>
        <path id="Path_58" data-name="Path 58" d="M67.072,16.836H64.338l-2-7.326H64.6l.862,3.348.308,2.281h.146l.585-2.5L67.613,9.51h2.822l1.1,3.129.585,2.5h.146l.322-2.281.848-3.348H75.67l-2.076,7.326H70.859L69.6,13.312l-.541-2.018H68.9l-.556,2.018Z" transform="translate(-4.406 -0.672)" fill="#fff"/>
        <path id="Path_59" data-name="Path 59" d="M79.508,8.576H77.315V6.85h2.193Zm0,8.072H77.315V9.322h2.193Z" transform="translate(-5.465 -0.484)" fill="#fff"/>
        <path id="Path_60" data-name="Path 60" d="M83.112,16.825H80.918V9.5H82.95v2.281l.162.073Zm5.907,0H86.826V12.993a1.7,1.7,0,0,0-.41-1.28A2.055,2.055,0,0,0,85,11.326a2,2,0,0,0-1.469.432,1.911,1.911,0,0,0-.416,1.367h-.279l-.161-1.374h.409a3.212,3.212,0,0,1,.44-1.163,2.532,2.532,0,0,1,.957-.892,3.264,3.264,0,0,1,1.586-.344,3.215,3.215,0,0,1,1.653.388,2.44,2.44,0,0,1,.979,1.045,3.316,3.316,0,0,1,.322,1.477Z" transform="translate(-5.72 -0.661)" fill="#fff"/>
        <path id="Path_61" data-name="Path 61" d="M93.026,16.825H90.832V9.5h2.032v2.281l.162.073Zm5.907,0H96.74V12.993a1.7,1.7,0,0,0-.41-1.28,2.055,2.055,0,0,0-1.418-.388,2,2,0,0,0-1.469.432,1.911,1.911,0,0,0-.416,1.367h-.279l-.161-1.374H93a3.212,3.212,0,0,1,.44-1.163,2.532,2.532,0,0,1,.957-.892,3.264,3.264,0,0,1,1.586-.344,3.215,3.215,0,0,1,1.653.388,2.44,2.44,0,0,1,.979,1.045,3.316,3.316,0,0,1,.322,1.477Z" transform="translate(-6.421 -0.661)" fill="#fff"/>
        <path id="Path_62" data-name="Path 62" d="M104.618,16.97a5.323,5.323,0,0,1-2.149-.409,3.091,3.091,0,0,1-1.448-1.258,4.072,4.072,0,0,1-.512-2.135,3.876,3.876,0,0,1,.512-2.026,3.457,3.457,0,0,1,1.426-1.322,4.6,4.6,0,0,1,2.127-.468,5.025,5.025,0,0,1,2.1.41,3.13,3.13,0,0,1,1.4,1.206,3.6,3.6,0,0,1,.5,1.937c0,.127,0,.244-.015.351s-.024.225-.043.351h-6.581V12.452h5.031l-.5.716v-.541a1.456,1.456,0,0,0-.453-1.2,2.362,2.362,0,0,0-1.477-.365,2.193,2.193,0,0,0-1.55.431,1.854,1.854,0,0,0-.438,1.368v.555a1.85,1.85,0,0,0,.438,1.367,2.215,2.215,0,0,0,1.565.432,2.7,2.7,0,0,0,1.361-.249.8.8,0,0,0,.395-.716V14.1h2.193v.161a2.213,2.213,0,0,1-.483,1.4,3.138,3.138,0,0,1-1.353.957,5.54,5.54,0,0,1-2.039.344" transform="translate(-7.105 -0.661)" fill="#fff"/>
        <path id="Path_63" data-name="Path 63" d="M112.38,16.824h-2.193V9.5h2.031v2.091l.162.073Zm0-4.24h-.44v-1.14h.41a2.922,2.922,0,0,1,.4-1.075,2.111,2.111,0,0,1,.812-.746,2.644,2.644,0,0,1,1.242-.27,2.338,2.338,0,0,1,1.339.345,1.994,1.994,0,0,1,.738.921,3.416,3.416,0,0,1,.234,1.294v1.215h-2.194v-.761a1.213,1.213,0,0,0-.27-.885,1.312,1.312,0,0,0-.942-.27,1.331,1.331,0,0,0-1.032.336,1.528,1.528,0,0,0-.3,1.038" transform="translate(-7.789 -0.661)" fill="#fff"/>
        <path id="Path_64" data-name="Path 64" d="M121.159,9.409h-2.822V6.85h2.822ZM119.2,11.471h-.775v-1.36h.717a.516.516,0,0,0,.328-.088.458.458,0,0,0,.11-.365V9.073h1.579v.571a1.741,1.741,0,0,1-.511,1.374,2.115,2.115,0,0,1-1.448.454" transform="translate(-8.365 -0.484)" fill="#fff"/>
        <path id="Path_65" data-name="Path 65" d="M126.154,16.97a4.923,4.923,0,0,1-2.837-.694,2.26,2.26,0,0,1-.993-1.967v-.044h2.192V14.4a.663.663,0,0,0,.359.666,3.426,3.426,0,0,0,1.295.167,2.836,2.836,0,0,0,1.163-.153.5.5,0,0,0,.284-.475.453.453,0,0,0-.218-.431,2.763,2.763,0,0,0-.863-.212l-2.062-.249a3.085,3.085,0,0,1-1.689-.614,1.766,1.766,0,0,1-.593-1.433,1.922,1.922,0,0,1,.381-1.163,2.593,2.593,0,0,1,1.177-.834,5.676,5.676,0,0,1,2.054-.314,6.105,6.105,0,0,1,2.04.3,2.613,2.613,0,0,1,1.28.9,2.458,2.458,0,0,1,.44,1.492v.045h-2.193V12a.936.936,0,0,0-.125-.5.8.8,0,0,0-.483-.3,3.939,3.939,0,0,0-1.031-.1,2.575,2.575,0,0,0-1.1.154.532.532,0,0,0-.278.5.458.458,0,0,0,.228.417,2.847,2.847,0,0,0,.942.242l1.565.19a3.981,3.981,0,0,1,2.076.673,1.742,1.742,0,0,1,.614,1.418,1.787,1.787,0,0,1-.438,1.2,2.845,2.845,0,0,1-1.243.8,5.839,5.839,0,0,1-1.945.285" transform="translate(-8.638 -0.661)" fill="#fff"/>
        <path id="Path_66" data-name="Path 66" d="M137.629,16.97a4.809,4.809,0,0,1-2.179-.467,3.389,3.389,0,0,1-1.44-1.323,3.886,3.886,0,0,1-.5-2.011,3.918,3.918,0,0,1,.5-2.026,3.381,3.381,0,0,1,1.44-1.322,4.809,4.809,0,0,1,2.179-.468,5.077,5.077,0,0,1,2.076.395,3.258,3.258,0,0,1,1.389,1.1,2.816,2.816,0,0,1,.5,1.66v.2h-2.178V12.6a1.053,1.053,0,0,0-.483-.987,2.651,2.651,0,0,0-1.346-.285,2.128,2.128,0,0,0-1.44.41,1.853,1.853,0,0,0-.46,1.433,1.831,1.831,0,0,0,.46,1.411,2.1,2.1,0,0,0,1.44.417,2.661,2.661,0,0,0,1.346-.285,1.053,1.053,0,0,0,.483-.987v-.117h2.178v.2a2.816,2.816,0,0,1-.5,1.66,3.258,3.258,0,0,1-1.389,1.1,5.092,5.092,0,0,1-2.076.395" transform="translate(-9.437 -0.661)" fill="#fff"/>
        <path id="Path_67" data-name="Path 67" d="M145.425,8.576h-2.193V6.85h2.193Zm0,8.072h-2.193V9.322h2.193Z" transform="translate(-10.125 -0.484)" fill="#fff"/>
        <path id="Path_68" data-name="Path 68" d="M149.028,16.824h-2.193V9.5h2.031v2.091l.162.073Zm0-4.24h-.44v-1.14H149a2.922,2.922,0,0,1,.4-1.075,2.111,2.111,0,0,1,.812-.746,2.645,2.645,0,0,1,1.242-.27,2.338,2.338,0,0,1,1.339.345,1.994,1.994,0,0,1,.738.921,3.417,3.417,0,0,1,.234,1.294v1.215h-2.194v-.761a1.213,1.213,0,0,0-.27-.885,1.312,1.312,0,0,0-.942-.27,1.331,1.331,0,0,0-1.032.336,1.528,1.528,0,0,0-.3,1.038" transform="translate(-10.38 -0.661)" fill="#fff"/>
        <path id="Path_69" data-name="Path 69" d="M159.03,16.97a4.809,4.809,0,0,1-2.179-.467,3.388,3.388,0,0,1-1.44-1.323,3.886,3.886,0,0,1-.5-2.011,3.917,3.917,0,0,1,.5-2.026,3.381,3.381,0,0,1,1.44-1.322,4.809,4.809,0,0,1,2.179-.468,5.077,5.077,0,0,1,2.076.395,3.258,3.258,0,0,1,1.389,1.1,2.816,2.816,0,0,1,.5,1.66v.2h-2.178V12.6a1.053,1.053,0,0,0-.483-.987,2.651,2.651,0,0,0-1.346-.285,2.128,2.128,0,0,0-1.44.41,1.853,1.853,0,0,0-.46,1.433,1.831,1.831,0,0,0,.46,1.411,2.1,2.1,0,0,0,1.44.417,2.661,2.661,0,0,0,1.346-.285,1.053,1.053,0,0,0,.483-.987v-.117h2.178v.2a2.816,2.816,0,0,1-.5,1.66,3.258,3.258,0,0,1-1.389,1.1,5.092,5.092,0,0,1-2.076.395" transform="translate(-10.95 -0.661)" fill="#fff"/>
        <rect id="Rectangle_79" data-name="Rectangle 79" width="2.193" height="9.798" transform="translate(152.994 6.366)" fill="#fff"/>
        <path id="Path_70" data-name="Path 70" d="M172.108,16.97a5.323,5.323,0,0,1-2.149-.409,3.091,3.091,0,0,1-1.448-1.258A4.072,4.072,0,0,1,168,13.169a3.876,3.876,0,0,1,.512-2.026,3.457,3.457,0,0,1,1.426-1.322,4.6,4.6,0,0,1,2.127-.468,5.025,5.025,0,0,1,2.1.41,3.131,3.131,0,0,1,1.4,1.206,3.6,3.6,0,0,1,.5,1.937c0,.127,0,.244-.015.351s-.024.225-.043.351h-6.581V12.452h5.031l-.5.716v-.541a1.456,1.456,0,0,0-.454-1.2,2.362,2.362,0,0,0-1.477-.365,2.193,2.193,0,0,0-1.55.431,1.854,1.854,0,0,0-.438,1.368v.555a1.85,1.85,0,0,0,.438,1.367,2.215,2.215,0,0,0,1.565.432,2.7,2.7,0,0,0,1.361-.249.8.8,0,0,0,.395-.716V14.1h2.193v.161a2.213,2.213,0,0,1-.483,1.4,3.138,3.138,0,0,1-1.353.957,5.54,5.54,0,0,1-2.039.344" transform="translate(-11.876 -0.661)" fill="#fff"/>
        <g id="Group_186" data-name="Group 186" transform="translate(43.527 21.535)" opacity="0.38">
          <g id="Group_185" data-name="Group 185">
            <g id="Group_184" data-name="Group 184" clip-path="url(#clip-path-3)">
              <path id="Path_71" data-name="Path 71" d="M46.838,23.261h.955v5.814h-.955Zm.656,5.814v-.831h1.67a.86.86,0,0,0,.68-.273.929.929,0,0,0,.242-.632.96.96,0,0,0-.108-.448.836.836,0,0,0-.316-.333.955.955,0,0,0-.5-.125h-1.67V25.6h1.529a.891.891,0,0,0,.6-.191.824.824,0,0,0,0-1.129.891.891,0,0,0-.6-.191H47.494v-.831h1.554a2.009,2.009,0,0,1,.98.217,1.449,1.449,0,0,1,.581.557,1.478,1.478,0,0,1,.191.73,1.336,1.336,0,0,1-.255.806,1.763,1.763,0,0,1-.743.564l.075-.3a1.974,1.974,0,0,1,.855.631,1.539,1.539,0,0,1,.308.955,1.571,1.571,0,0,1-.867,1.424,2.211,2.211,0,0,1-1.051.229Z" transform="translate(-46.838 -23.178)" fill="#fff"/>
              <path id="Path_72" data-name="Path 72" d="M55.862,26.75l-2.268-3.488h1.1l1.769,2.782h-.515l1.768-2.782h1.088L56.526,26.75Zm-.133-.6h.955v2.924h-.955Z" transform="translate(-47.315 -23.179)" fill="#fff"/>
              <path id="Path_73" data-name="Path 73" d="M65.55,23.261h.955v5.814H65.55Zm.656,3.347v-.789h1.47a.967.967,0,0,0,.686-.229.826.826,0,0,0,.244-.636.848.848,0,0,0-.24-.614.907.907,0,0,0-.682-.249H66.206v-.831h1.52a2.028,2.028,0,0,1,.964.22,1.591,1.591,0,0,1,.872,1.458,1.653,1.653,0,0,1-.228.88,1.547,1.547,0,0,1-.644.582,2.141,2.141,0,0,1-.964.207Zm2.534,2.466L66.705,26.55l.889-.323,2.349,2.848Z" transform="translate(-48.161 -23.178)" fill="#fff"/>
              <path id="Path_74" data-name="Path 74" d="M72.344,29.076l2.391-5.814H75.4l2.374,5.814H76.745l-1.86-4.709h.348l-1.876,4.709Zm1.178-1.952H76.6v.831H73.522Z" transform="translate(-48.641 -23.179)" fill="#fff"/>
              <path id="Path_75" data-name="Path 75" d="M83.22,29.152a2.942,2.942,0,0,1-1.167-.229,2.834,2.834,0,0,1-.935-.639,2.888,2.888,0,0,1-.614-.954A3.267,3.267,0,0,1,80.5,25a2.844,2.844,0,0,1,.614-.951,3.076,3.076,0,0,1,3.322-.639,3.049,3.049,0,0,1,.914.631l-.647.648a1.824,1.824,0,0,0-.627-.44,2.183,2.183,0,0,0-.86-.157,2.045,2.045,0,0,0-.79.149,1.815,1.815,0,0,0-.619.428,1.916,1.916,0,0,0-.4.66,2.548,2.548,0,0,0,0,1.678,1.925,1.925,0,0,0,.4.66,1.8,1.8,0,0,0,.619.427,2.028,2.028,0,0,0,.79.15,2.242,2.242,0,0,0,.9-.162,1.84,1.84,0,0,0,.627-.444l.648.648a2.906,2.906,0,0,1-.939.639,3.1,3.1,0,0,1-1.237.232" transform="translate(-49.202 -23.172)" fill="#fff"/>
              <rect id="Rectangle_80" data-name="Rectangle 80" width="0.955" height="5.814" transform="translate(38.875 0.083)" fill="#fff"/>
              <path id="Path_76" data-name="Path 76" d="M93.022,29.075V23.261h.665l.29,1.1v4.717Zm4.029,0-3.48-4.542.117-1.271L97.167,27.8Zm0,0-.291-1.021V23.261h.955v5.814Z" transform="translate(-50.103 -23.178)" fill="#fff"/>
              <path id="Path_77" data-name="Path 77" d="M104,29.152a2.781,2.781,0,0,1-1.129-.232,2.9,2.9,0,0,1-.93-.644,3.056,3.056,0,0,1-.627-.955,3.08,3.08,0,0,1,0-2.329,3.028,3.028,0,0,1,.631-.951,2.846,2.846,0,0,1,.948-.639,2.978,2.978,0,0,1,1.174-.23,3.076,3.076,0,0,1,1.28.267,2.658,2.658,0,0,1,.989.756l-.649.648a1.656,1.656,0,0,0-.69-.56,2.228,2.228,0,0,0-.93-.2,2.069,2.069,0,0,0-1.05.261,1.8,1.8,0,0,0-.7.727,2.453,2.453,0,0,0,0,2.163,1.9,1.9,0,0,0,.686.735,1.826,1.826,0,0,0,.979.266,2.2,2.2,0,0,0,1-.212,1.465,1.465,0,0,0,.643-.631,2.171,2.171,0,0,0,.224-1.034l.6.432h-2.483v-.873h2.873v.134a3.623,3.623,0,0,1-.37,1.727,2.434,2.434,0,0,1-1.009,1.031,3.066,3.066,0,0,1-1.462.34" transform="translate(-50.672 -23.172)" fill="#fff"/>
              <path id="Path_78" data-name="Path 78" d="M114.015,23.262h.955v5.814h-.955Zm.656,4.941h3.04v.872h-3.04Z" transform="translate(-51.587 -23.179)" fill="#fff"/>
              <path id="Path_79" data-name="Path 79" d="M120.895,23.262h.955v5.814h-.955Zm.657,0h3.215v.872h-3.215Zm0,2.426h2.974v.838h-2.974Zm0,2.516h3.256v.872h-3.256Z" transform="translate(-52.073 -23.179)" fill="#fff"/>
              <path id="Path_80" data-name="Path 80" d="M127.67,29.076l2.391-5.814h.664l2.375,5.814h-1.03l-1.86-4.709h.348l-1.876,4.709Zm1.178-1.952h3.081v.831h-3.081Z" transform="translate(-52.552 -23.179)" fill="#fff"/>
              <path id="Path_81" data-name="Path 81" d="M138.529,29.152a2.781,2.781,0,0,1-1.129-.232,2.9,2.9,0,0,1-.93-.644,3.055,3.055,0,0,1-.627-.955,3.08,3.08,0,0,1,0-2.329,3.029,3.029,0,0,1,.631-.951,2.846,2.846,0,0,1,.948-.639,2.978,2.978,0,0,1,1.174-.23,3.076,3.076,0,0,1,1.28.267,2.658,2.658,0,0,1,.989.756l-.649.648a1.656,1.656,0,0,0-.69-.56,2.228,2.228,0,0,0-.93-.2,2.069,2.069,0,0,0-1.05.261,1.8,1.8,0,0,0-.7.727,2.453,2.453,0,0,0,0,2.163,1.9,1.9,0,0,0,.686.735,1.826,1.826,0,0,0,.98.266,2.2,2.2,0,0,0,1-.212,1.465,1.465,0,0,0,.643-.631,2.172,2.172,0,0,0,.224-1.034l.6.432H138.5v-.873h2.873v.134a3.623,3.623,0,0,1-.37,1.727,2.434,2.434,0,0,1-1.009,1.031,3.066,3.066,0,0,1-1.462.34" transform="translate(-53.113 -23.172)" fill="#fff"/>
              <path id="Path_82" data-name="Path 82" d="M147.029,29.158a2.328,2.328,0,0,1-1.179-.3,2.208,2.208,0,0,1-.826-.818,2.29,2.29,0,0,1-.3-1.175v-3.6h.955v3.6a1.45,1.45,0,0,0,.178.735,1.252,1.252,0,0,0,.487.482,1.4,1.4,0,0,0,.689.17,1.372,1.372,0,0,0,.69-.17,1.236,1.236,0,0,0,.473-.482,1.449,1.449,0,0,0,.175-.726v-3.6h.955v3.612a2.306,2.306,0,0,1-.3,1.172,2.211,2.211,0,0,1-.814.813,2.307,2.307,0,0,1-1.18.3" transform="translate(-53.757 -23.179)" fill="#fff"/>
              <path id="Path_83" data-name="Path 83" d="M152.925,23.262h.955v5.814h-.955Zm.656,0H156.8v.872h-3.214Zm0,2.426h2.974v.838h-2.974Zm0,2.516h3.256v.872h-3.256Z" transform="translate(-54.337 -23.179)" fill="#fff"/>
            </g>
          </g>
        </g>
      </g>
    </g>
  </g>
</svg>
