<svg xmlns="http://www.w3.org/2000/svg" width="29.144" height="31.025" viewBox="0 0 29.144 31.025">
  <defs>
    <style>
      .cls-1 {
        fill: #fff;
      }

      .cls-2 {
        fill: #f94933;
      }
    </style>
  </defs>
  <g id="Group_794" data-name="Group 794" transform="translate(-20.447 -19.507)">
    <g id="Group_795" data-name="Group 795" transform="translate(0 0)">
      <path id="Path_103" data-name="Path 103" class="cls-1" d="M31.745,33.274H12.621a5.015,5.015,0,0,1-3.546-8.559l2.7-2.7V17.653a10.406,10.406,0,1,1,20.813,0v4.361l2.7,2.7a5.016,5.016,0,0,1-3.545,8.56ZM22.184,8.247a9.417,9.417,0,0,0-9.406,9.406v4.776l-3,2.992a4.015,4.015,0,0,0,2.839,6.852H31.744a4.016,4.016,0,0,0,2.839-6.853l-2.992-2.992V17.653A9.417,9.417,0,0,0,22.184,8.247Z" transform="translate(12.834 12.26)"/>
      <path id="Line_27" data-name="Line 27" class="cls-2" d="M8.158.5H0A.5.5,0,0,1-.5,0,.5.5,0,0,1,0-.5H8.158a.5.5,0,0,1,.5.5A.5.5,0,0,1,8.158.5Z" transform="translate(30.939 50.031)"/>
    </g>
  </g>
</svg>
