<svg xmlns="http://www.w3.org/2000/svg" viewBox="0 0 81.79 51.2">
  <g>
    <path d="M78.4,16.92V6.38A5.39,5.39,0,0,0,73,1H6.38A5.39,5.39,0,0,0,1,6.38V44.81A5.39,5.39,0,0,0,6.38,50.2H48.14" fill="none" stroke="#fff" stroke-linecap="round" stroke-linejoin="round" stroke-width="2"/>
    <g>
      <line x1="15.8" y1="2.32" x2="15.8" y2="5.82" fill="none" stroke="#fff" stroke-linecap="round" stroke-linejoin="round" stroke-width="2"/>
      <line x1="15.8" y1="13.58" x2="15.8" y2="40.71" fill="none" stroke="#fff" stroke-linecap="round" stroke-linejoin="round" stroke-width="2" stroke-dasharray="7.75 7.75"/>
      <line x1="15.8" y1="44.59" x2="15.8" y2="48.09" fill="none" stroke="#fff" stroke-linecap="round" stroke-linejoin="round" stroke-width="2"/>
    </g>
    <path d="M73.22,42.64h0a4.39,4.39,0,0,0,0,6.26,4.47,4.47,0,0,0,6.26,0,4.43,4.43,0,0,0-6.26-6.26Z" fill="none" stroke="#ff321e" stroke-linecap="round" stroke-linejoin="round" stroke-width="2"/>
    <path d="M64.57,34a4.43,4.43,0,1,0-6.26,0,4.44,4.44,0,0,0,6.26,0Z" fill="none" stroke="#ff321e" stroke-linecap="round" stroke-linejoin="round" stroke-width="2"/>
    <line x1="58.95" y1="48.25" x2="78.83" y2="28.37" fill="none" stroke="#fff" stroke-linecap="round" stroke-linejoin="round" stroke-width="2"/>
  </g>
</svg>
