<svg xmlns="http://www.w3.org/2000/svg" viewBox="0 0 26.02 32.17">
  <g>
    <path d="M10.39,2.52a7.69,7.69,0,0,1,5.39,2L18,6.65a5.05,5.05,0,0,0,5.32,1,1.25,1.25,0,0,1,1.31.19A1.27,1.27,0,0,1,25,9.12l-2.32,8.66a1.3,1.3,0,0,1-.7.82,7,7,0,0,1-2.82.58A7.71,7.71,0,0,1,14,17.13L11.75,15a5.27,5.27,0,0,0-4.18-1.31" fill="none" stroke="#f94933" stroke-linecap="round" stroke-miterlimit="10" stroke-width="1.88"/>
    <path d="M7.53,13.74,3.4,30.29a1.25,1.25,0,0,1-1.21.94,1,1,0,0,1-.3,0A1.24,1.24,0,0,1,1,29.68L8,1.89A1.24,1.24,0,0,1,9.49,1a1.13,1.13,0,0,1,.86,1.55" fill="none" stroke="#fff" stroke-linecap="round" stroke-miterlimit="10" stroke-width="1.88"/>
  </g>
</svg>
