<svg id="Group_653" data-name="Group 653" xmlns="http://www.w3.org/2000/svg" width="70.036" height="70.036" viewBox="0 0 70.036 70.036">
  <path id="Path_95" data-name="Path 95" d="M14.54,6.352a10.616,10.616,0,0,1,7.4,2.789l3.058,2.882a6.969,6.969,0,0,0,7.3,1.369A1.715,1.715,0,0,1,34.645,15.4L31.458,27.291a1.7,1.7,0,0,1-.961,1.123,9.555,9.555,0,0,1-3.874.8,10.555,10.555,0,0,1-7.166-2.8L16.4,23.526a7.2,7.2,0,0,0-5.73-1.8" transform="translate(16.884 10.049)" fill="none" stroke="#f94933" stroke-linecap="round" stroke-miterlimit="10" stroke-width="1"/>
  <path id="Path_96" data-name="Path 96" d="M16.188,23.072,10.522,45.79a1.715,1.715,0,0,1-1.661,1.3,1.822,1.822,0,0,1-.421-.052A1.715,1.715,0,0,1,7.2,44.954L16.8,6.808a1.712,1.712,0,0,1,2.081-1.245A1.562,1.562,0,0,1,20.056,7.7" transform="translate(11.308 8.72)" fill="none" stroke="#fff" stroke-linecap="round" stroke-miterlimit="10" stroke-width="1"/>
  <rect id="Rectangle_89" data-name="Rectangle 89" width="70.036" height="70.036" fill="none"/>
</svg>
