<svg id="Group_695" data-name="Group 695" xmlns="http://www.w3.org/2000/svg" width="65.498" height="31.226" viewBox="0 0 65.498 31.226">
  <rect id="Rectangle_296" data-name="Rectangle 296" width="65.498" height="31.226" rx="5" transform="translate(0)" fill="#fff"/>
  <g id="Payment_method_icon" data-name="Payment method icon" transform="translate(11.259 8.552)" style="isolation: isolate">
    <path id="visa-logo" d="M24.784,14.121h0c-.1,0-.2,0-.3,0a9.868,9.868,0,0,1-3.823-.739l.62-2.95a8.672,8.672,0,0,0,3.617.844c1.028,0,2.065-.423,2.065-1.369.1-.6-.328-1.013-1.755-1.686a7.793,7.793,0,0,1-1.964-1.33A3.254,3.254,0,0,1,22.214,4.53C22.214,1.905,24.691,0,28.1,0a8.68,8.68,0,0,1,3.2.634l-.619,2.949a6.352,6.352,0,0,0-2.834-.659c-.194,0-.387.009-.576.027a1.373,1.373,0,0,0-1.448,1.159c0,.63.789,1.051,1.7,1.538,1.405.749,3.154,1.681,3.154,3.834C30.687,12.3,28.37,14.121,24.784,14.121Zm9.415-.109H30.582L35.748,1.369A1.56,1.56,0,0,1,37.2.316h3L42.98,14.01l-3.2,0-.413-2H34.921l-.722,2ZM37.712,4,35.851,9.166h2.893ZM18.391,14.011H14.878L17.771.316h3.513L18.391,14.01Zm-7.646,0H7.026L4.237,3.056A1.767,1.767,0,0,0,3.41,1.9,11.9,11.9,0,0,0,0,.737V.316H5.993A1.584,1.584,0,0,1,7.543,1.685l1.447,7.9L12.708.316h3.617L10.746,14.01Z" transform="translate(0 0)" fill="#172b85" style="isolation: isolate"/>
  </g>
</svg>
