<svg xmlns="http://www.w3.org/2000/svg" viewBox="0 0 39 34"><defs><style>.cls-1,.cls-2{fill:none;stroke-miterlimit:10;}.cls-1{stroke:#f94933;}.cls-2{stroke:#fff;}</style></defs><g id="Layer_2" data-name="Layer 2"><g id="Layer_1-2" data-name="Layer 1"><path class="cls-1" d="M18,7.25V2.71A2.22,2.22,0,0,1,20.22.5H36.27A2.22,2.22,0,0,1,38.5,2.71V18.63a2.22,2.22,0,0,1-2.23,2.21H27"/><rect class="cls-2" x="0.5" y="7.25" width="26.46" height="26.25" rx="5.46"/><path id="Path_179" data-name="Path 179" class="cls-2" d="M11.49,29a.28.28,0,0,1-.27-.22l-1.14-5.25L4.79,22.39a.27.27,0,0,1-.21-.32.28.28,0,0,1,.21-.21l5.29-1.12,1.14-5.25a.27.27,0,0,1,.32-.21.25.25,0,0,1,.21.21l1.14,5.25,5.29,1.13a.27.27,0,0,1,.21.32.26.26,0,0,1-.21.2l-5.29,1.13-1.14,5.25a.28.28,0,0,1-.27.22"/><path id="Path_179-2" data-name="Path 179" class="cls-2" d="M18.4,17.7a.14.14,0,0,1-.14-.11l-.58-2.69L15,14.32a.13.13,0,0,1-.1-.16.13.13,0,0,1,.1-.11l2.72-.58.58-2.69a.16.16,0,0,1,.17-.11.16.16,0,0,1,.1.11l.59,2.69,2.71.58a.14.14,0,0,1,.11.17.13.13,0,0,1-.11.1l-2.71.58-.59,2.69a.13.13,0,0,1-.13.11"/></g></g></svg>