<svg xmlns="http://www.w3.org/2000/svg" viewBox="0 0 74.23 65.24">
  <g>
    <g>
      <path d="M34.24,13.94V5.23A4.23,4.23,0,0,1,38.48,1H69a4.23,4.23,0,0,1,4.24,4.23V35.75A4.23,4.23,0,0,1,69,40H51.3" fill="none" stroke="#f94933" stroke-miterlimit="10" stroke-width="2"/>
      <rect x="1" y="13.94" width="50.3" height="50.3" rx="5.46" fill="none" stroke="#fff" stroke-miterlimit="10" stroke-width="2"/>
    </g>
    <path d="M21.88,55.59a.51.51,0,0,1-.5-.41L19.22,45.11,9.15,43a.51.51,0,0,1-.4-.61.53.53,0,0,1,.4-.4l10.07-2.16,2.16-10.06a.51.51,0,0,1,.61-.4.53.53,0,0,1,.4.4l2.16,10.06,10.06,2.16a.52.52,0,0,1,.4.62.52.52,0,0,1-.4.39L24.55,45.11,22.38,55.18a.51.51,0,0,1-.5.41" fill="none" stroke="#fff" stroke-miterlimit="10" stroke-width="2"/>
    <path d="M35,34a.27.27,0,0,1-.26-.21L33.65,28.6l-5.16-1.11a.27.27,0,0,1-.2-.32.26.26,0,0,1,.2-.2l5.16-1.11,1.11-5.16a.27.27,0,0,1,.32-.2.26.26,0,0,1,.2.2l1.11,5.16L41.55,27a.26.26,0,0,1,.2.31.26.26,0,0,1-.2.21L36.39,28.6l-1.11,5.16A.28.28,0,0,1,35,34" fill="none" stroke="#fff" stroke-miterlimit="10" stroke-width="2"/>
  </g>
</svg>
